# xmcd
#
# Track frame offsets:
#	150
#	26982
#	49649
#	75723
#	98720
#	118640
#	137862
#	157451
#	177356
#	192770
#	212342
#	258284
#	282431
#
# Disc length: 4283 seconds
#
# Revision: 0
# Processed by: cddbd v1.5.2PL0 Copyright (c) Steve Scherf et al.
# Submitted via: EasyCDDAExtractor 10.5.1.1
#
DISCID=ba10b90d
DTITLE=John Mayer - Where The Light Is [CD 1)
DYEAR=2008
DGENRE=Blues
TTITLE0=Non
TTITLE1=Stop This Train
TTITLE2=In Your Atmosphere
TTITLE3=Daughters
TTITLE4=Free Fallin'
TTITLE5=Everyday I Have The Blues
TTITLE6=Wait Until Tomorrow
TTITLE7=Who Did You Think I Was
TTITLE8=Come When I Call
TTITLE9=Good Love Is On The Way
TTITLE10=Out Of My Mind
TTITLE11=Vultures
TTITLE12=Bold As Love
EXTD=
EXTT0=
EXTT1=
EXTT2=
EXTT3=
EXTT4=
EXTT5=
EXTT6=
EXTT7=
EXTT8=
EXTT9=
EXTT10=
EXTT11=
EXTT12=
PLAYORDER=
